<?xml version="1.0" encoding="UTF-8"?>
<svg width="700pt" height="700pt" version="1.1" viewBox="0 0 700 700" xmlns="http://www.w3.org/2000/svg">
 <g fill-rule="evenodd">
  <path d="m350 429.33c-82.473 0-149.33-66.859-149.33-149.33s66.859-149.33 149.33-149.33 149.33 66.859 149.33 149.33-66.859 149.33-149.33 149.33zm0-27.148c67.48 0 122.18-54.703 122.18-122.18s-54.703-122.18-122.18-122.18-122.18 54.703-122.18 122.18 54.703 122.18 122.18 122.18z"/>
  <path d="m350 504c-123.71 0-224-100.29-224-224 0-123.71 100.29-224 224-224 123.71 0 224 100.29 224 224 0 123.71-100.29 224-224 224zm0-50.91c95.594 0 173.09-77.496 173.09-173.09s-77.496-173.09-173.09-173.09-173.09 77.496-173.09 173.09 77.496 173.09 173.09 173.09z"/>
  <path d="m351.89 340.14-60.34 29.816c-1.8516 0.91016-4.0898 0.15234-5.0039-1.6953-0.33203-0.67969-0.45312-1.4414-0.34766-2.1914l9.7109-66.605-47.004-48.176c-1.4375-1.4727-1.4102-3.8398 0.066406-5.2773 0.54297-0.52734 1.2305-0.87891 1.9766-1.0078l66.344-11.348 31.293-59.59c0.96094-1.8242 3.2148-2.5273 5.043-1.5703 0.66797 0.35156 1.2188 0.89844 1.5703 1.5703l31.293 59.59 66.344 11.348c2.0312 0.34766 3.3984 2.2773 3.0508 4.3086-0.12891 0.74609-0.48047 1.4375-1.0078 1.9766l-47.004 48.176 9.707 66.605c0.30078 2.0391-1.1133 3.9336-3.1523 4.2344-0.75 0.10547-1.5156-0.015626-2.1953-0.34766z"/>
 </g>
</svg>
